<svg xmlns="http://www.w3.org/2000/svg" xmlns:xlink="http://www.w3.org/1999/xlink" width="2000" zoomAndPan="magnify" viewBox="0 0 1500 1499.999933" height="2000" preserveAspectRatio="xMidYMid meet" version="1.0"><rect x="-150" width="1800" fill="#ffffff" y="-149.999993" height="1799.99992" fill-opacity="1"/><rect x="-150" width="1800" fill="#f7f7f7" y="-149.999993" height="1799.99992" fill-opacity="1"/><path fill="#14873e" d="M 787.484375 600.066406 C 828.3125 553.222656 879.242188 527.945312 940.234375 523.855469 C 1039.636719 517.183594 1127.851562 571.394531 1163.671875 669.539062 C 1186.738281 732.75 1185.84375 796.46875 1171.964844 860.765625 C 1144.382812 988.527344 1073.011719 1085.433594 963.464844 1155.589844 C 920.644531 1183.011719 874.179688 1200.988281 825.648438 1214.726562 C 817.03125 1217.167969 813.136719 1215.027344 810.496094 1206.660156 C 804.730469 1188.394531 798.546875 1170.238281 791.839844 1152.296875 C 788.171875 1142.488281 790.121094 1136.632812 799.023438 1130.273438 C 843.71875 1098.351562 880.085938 1059.046875 903.015625 1008.398438 C 909.039062 995.089844 913.445312 981.257812 917.496094 967.253906 C 920.324219 957.480469 917.941406 952.480469 907.148438 950.5 C 863.027344 942.394531 824.878906 922.417969 792.0625 891.757812 C 783.546875 883.804688 780.824219 877.609375 788.230469 866.75 C 797.710938 852.851562 803.527344 836.769531 808.992188 820.753906 C 810.433594 816.535156 810.894531 811.707031 814.847656 808.609375 C 819.695312 808.757812 820.863281 813.015625 822.980469 815.945312 C 853.589844 858.328125 894.605469 881.878906 947.085938 884.824219 C 956.75 885.363281 966.375 883.984375 975.515625 881.5625 C 985.816406 878.832031 988.304688 882.523438 988.820312 891.921875 C 992.960938 967.320312 973.269531 1035.210938 925.78125 1094.496094 C 924.132812 1096.554688 922.53125 1098.652344 920.640625 1101.078125 C 925.152344 1102.738281 927.824219 1100 930.386719 1098.277344 C 986.925781 1060.269531 1034.394531 1013.496094 1066.652344 952.945312 C 1105.746094 879.558594 1121.074219 801.289062 1104.574219 719.390625 C 1091.953125 656.730469 1054.710938 612.542969 990.636719 597.039062 C 918.335938 579.542969 847.101562 617.875 816.140625 687.71875 C 805.875 710.875 802.378906 735.421875 797.832031 759.875 C 784.863281 829.648438 755.539062 889.925781 693.449219 928.792969 C 596.386719 989.554688 458.984375 966.664062 391.230469 858.03125 C 362.851562 812.53125 351.617188 762.03125 352.226562 708.90625 C 353.726562 578.21875 403.960938 468.480469 497.722656 378.652344 C 557.902344 320.996094 629.355469 282.898438 710.484375 263.109375 C 717.765625 261.335938 721.1875 263.496094 723.214844 270.269531 C 729.480469 291.183594 735.800781 312.085938 742.46875 332.871094 C 744.933594 340.554688 741.914062 344.917969 735.859375 349.125 C 710.238281 366.941406 687.019531 387.4375 667.585938 412 C 645.171875 440.328125 629.101562 471.871094 619.746094 506.785156 C 618.960938 509.726562 618.699219 512.804688 618.152344 515.8125 C 616.554688 524.589844 619.746094 529.0625 628.976562 530.886719 C 668.769531 538.746094 702.878906 557.75 732.386719 585.320312 C 732.949219 585.84375 733.523438 586.351562 734.078125 586.882812 C 751.238281 603.328125 751.433594 603.4375 739.832031 623.734375 C 731.984375 637.472656 726.726562 652.261719 720.910156 666.847656 C 719.386719 670.679688 718.96875 675.148438 714.835938 677.960938 C 709.03125 677.175781 707.761719 671.628906 705.28125 667.746094 C 683.304688 633.335938 653.519531 609.703125 613.414062 599.769531 C 594.921875 595.1875 576.449219 593.359375 557.867188 598.660156 C 548.214844 601.410156 544.785156 597.695312 544.046875 588.183594 C 538.332031 514.519531 559.570312 448.976562 603.035156 389.992188 C 605.925781 386.066406 609.769531 382.683594 610.792969 377.277344 C 606.171875 375.9375 603.484375 379.378906 600.613281 381.316406 C 505.027344 445.683594 447.039062 535.261719 426.28125 647.988281 C 415.933594 704.207031 418.585938 760.519531 446.75 812.398438 C 475.183594 864.777344 520.070312 892.488281 579.710938 891.464844 C 636.394531 890.496094 678.585938 863.261719 705.890625 813.097656 C 721.4375 784.535156 725.804688 753.007812 732.296875 721.902344 C 741.550781 677.546875 756.484375 635.570312 787.484375 600.066406 Z M 787.484375 600.066406 " fill-opacity="1" fill-rule="nonzero"/></svg>