<svg xmlns="http://www.w3.org/2000/svg" width="36" height="36" viewBox="-2 -2 40 40">
  <path fill="#14873e" d="M 20.992188 34.363281 C 13.871094 35.84375 6.78125 32.65625 3.277344 26.347656 C -0.625 19.320312 1.019531 10.179688 7.65625 5.113281 C 10.351562 3.054688 13.390625 1.953125 16.804688 1.820312 C 20.449219 1.679688 23.753906 2.609375 26.730469 4.710938 C 27.605469 5.324219 27.601562 5.375 26.882812 6.105469 C 26.0625 6.941406 25.277344 7.824219 24.378906 8.574219 C 23.5 9.304688 23.488281 10.167969 23.679688 11.230469 C 24.226562 10.964844 24.550781 10.519531 24.921875 10.152344 C 26.683594 8.402344 28.402344 6.613281 30.179688 4.882812 C 30.726562 4.347656 30.660156 4.015625 30.105469 3.597656 C 29.738281 3.320312 29.410156 2.988281 29.085938 2.65625 C 28.71875 2.285156 28.734375 1.953125 29.300781 1.859375 C 31.152344 1.5625 33.011719 1.289062 34.867188 1.011719 C 35.308594 0.945312 35.671875 1.027344 35.5625 1.589844 C 35.179688 3.589844 34.773438 5.589844 34.371094 7.585938 C 34.359375 7.632812 34.300781 7.664062 34.1875 7.785156 C 33.269531 7.433594 32.976562 6.402344 32.460938 5.992188 C 30.089844 8.234375 27.75 10.441406 25.328125 12.722656 C 26.523438 12.933594 27.40625 12.835938 28.175781 11.9375 C 29.039062 10.933594 29.949219 9.949219 31.128906 9.039062 C 33.757812 13.035156 34.613281 17.316406 33.535156 21.859375 C 31.953125 28.527344 27.628906 32.59375 20.992188 34.363281 M 22.855469 19.246094 C 23.925781 18.363281 25 17.480469 26.070312 16.59375 C 26.253906 16.441406 26.496094 16.28125 26.421875 15.996094 C 26.335938 15.65625 26.019531 15.679688 25.753906 15.664062 C 24.203125 15.558594 22.65625 15.433594 21.105469 15.375 C 20.40625 15.347656 20.019531 15.070312 19.789062 14.410156 C 19.300781 13.023438 18.769531 11.652344 18.234375 10.28125 C 18.109375 9.96875 18.03125 9.519531 17.605469 9.507812 C 17.160156 9.496094 17.09375 9.953125 16.972656 10.265625 C 16.417969 11.714844 15.875 13.167969 15.351562 14.628906 C 15.175781 15.125 14.917969 15.363281 14.351562 15.382812 C 12.777344 15.441406 11.199219 15.5625 9.625 15.664062 C 9.3125 15.683594 8.917969 15.601562 8.773438 15.988281 C 8.625 16.394531 8.992188 16.558594 9.234375 16.761719 C 10.375 17.730469 11.507812 18.710938 12.671875 19.65625 C 13.253906 20.125 13.425781 20.625 13.195312 21.363281 C 12.757812 22.765625 12.394531 24.191406 12.035156 25.613281 C 11.964844 25.890625 11.6875 26.265625 12.089844 26.5 C 12.421875 26.691406 12.710938 26.4375 12.984375 26.257812 C 14.304688 25.390625 15.632812 24.535156 16.933594 23.644531 C 17.402344 23.324219 17.785156 23.285156 18.265625 23.617188 C 19.5625 24.515625 20.886719 25.378906 22.203125 26.253906 C 22.445312 26.414062 22.699219 26.675781 23.011719 26.476562 C 23.34375 26.265625 23.164062 25.949219 23.082031 25.664062 C 22.730469 24.40625 22.484375 23.109375 22.011719 21.902344 C 21.5625 20.757812 21.683594 19.9375 22.855469 19.246094 Z" />
</svg>
