<svg xmlns="http://www.w3.org/2000/svg" xmlns:xlink="http://www.w3.org/1999/xlink" width="160" zoomAndPan="magnify" viewBox="0 0 120 36.000001" height="48" preserveAspectRatio="xMidYMid meet" version="1.0"><defs><g/><clipPath id="a293813e08"><path d="M 1 0.699219 L 35.863281 0.699219 L 35.863281 34.792969 L 1 34.792969 Z M 1 0.699219 " clip-rule="nonzero"/></clipPath><clipPath id="24de951da2"><path d="M 37 4 L 99.972656 4 L 99.972656 24 L 37 24 Z M 37 4 " clip-rule="nonzero"/></clipPath><clipPath id="249c236129"><path d="M 52 7 L 62.972656 7 L 62.972656 19 L 52 19 Z M 52 7 " clip-rule="nonzero"/></clipPath><clipPath id="dcae6d1d87"><rect x="0" width="63" y="0" height="20"/></clipPath><clipPath id="0fc8c0058b"><path d="M 51 2 L 53.835938 2 L 53.835938 6 L 51 6 Z M 51 2 " clip-rule="nonzero"/></clipPath><clipPath id="d377738b09"><rect x="0" width="54" y="0" height="8"/></clipPath><clipPath id="c748fd9202"><rect x="0" width="100" y="0" height="35"/></clipPath></defs><g transform="matrix(1, 0, 0, 1, 10, 0.000000000000010547)"><g clip-path="url(#c748fd9202)"><g clip-path="url(#a293813e08)"><path fill="#14873e" d="M 20.992188 34.363281 C 13.871094 35.84375 6.78125 32.65625 3.277344 26.347656 C -0.625 19.320312 1.019531 10.179688 7.65625 5.113281 C 10.351562 3.054688 13.390625 1.953125 16.804688 1.820312 C 20.449219 1.679688 23.753906 2.609375 26.730469 4.710938 C 27.605469 5.324219 27.601562 5.375 26.882812 6.105469 C 26.0625 6.941406 25.277344 7.824219 24.378906 8.574219 C 23.5 9.304688 23.488281 10.167969 23.679688 11.230469 C 24.226562 10.964844 24.550781 10.519531 24.921875 10.152344 C 26.683594 8.402344 28.402344 6.613281 30.179688 4.882812 C 30.726562 4.347656 30.660156 4.015625 30.105469 3.597656 C 29.738281 3.320312 29.410156 2.988281 29.085938 2.65625 C 28.71875 2.285156 28.734375 1.953125 29.300781 1.859375 C 31.152344 1.5625 33.011719 1.289062 34.867188 1.011719 C 35.308594 0.945312 35.671875 1.027344 35.5625 1.589844 C 35.179688 3.589844 34.773438 5.589844 34.371094 7.585938 C 34.359375 7.632812 34.300781 7.664062 34.1875 7.785156 C 33.269531 7.433594 32.976562 6.402344 32.460938 5.992188 C 30.089844 8.234375 27.75 10.441406 25.328125 12.722656 C 26.523438 12.933594 27.40625 12.835938 28.175781 11.9375 C 29.039062 10.933594 29.949219 9.949219 31.128906 9.039062 C 33.757812 13.035156 34.613281 17.316406 33.535156 21.859375 C 31.953125 28.527344 27.628906 32.59375 20.992188 34.363281 M 22.855469 19.246094 C 23.925781 18.363281 25 17.480469 26.070312 16.59375 C 26.253906 16.441406 26.496094 16.28125 26.421875 15.996094 C 26.335938 15.65625 26.019531 15.679688 25.753906 15.664062 C 24.203125 15.558594 22.65625 15.433594 21.105469 15.375 C 20.40625 15.347656 20.019531 15.070312 19.789062 14.410156 C 19.300781 13.023438 18.769531 11.652344 18.234375 10.28125 C 18.109375 9.96875 18.03125 9.519531 17.605469 9.507812 C 17.160156 9.496094 17.09375 9.953125 16.972656 10.265625 C 16.417969 11.714844 15.875 13.167969 15.351562 14.628906 C 15.175781 15.125 14.917969 15.363281 14.351562 15.382812 C 12.777344 15.441406 11.199219 15.5625 9.625 15.664062 C 9.3125 15.683594 8.917969 15.601562 8.773438 15.988281 C 8.625 16.394531 8.992188 16.558594 9.234375 16.761719 C 10.375 17.730469 11.507812 18.710938 12.671875 19.65625 C 13.253906 20.125 13.425781 20.625 13.195312 21.363281 C 12.757812 22.765625 12.394531 24.191406 12.035156 25.613281 C 11.964844 25.890625 11.6875 26.265625 12.089844 26.5 C 12.421875 26.691406 12.710938 26.4375 12.984375 26.257812 C 14.304688 25.390625 15.632812 24.535156 16.933594 23.644531 C 17.402344 23.324219 17.785156 23.285156 18.265625 23.617188 C 19.5625 24.515625 20.886719 25.378906 22.203125 26.253906 C 22.445312 26.414062 22.699219 26.675781 23.011719 26.476562 C 23.34375 26.265625 23.164062 25.949219 23.082031 25.664062 C 22.730469 24.40625 22.484375 23.109375 22.011719 21.902344 C 21.5625 20.757812 21.683594 19.9375 22.855469 19.246094 Z M 22.855469 19.246094 " fill-opacity="1" fill-rule="nonzero"/></g><g clip-path="url(#24de951da2)"><g transform="matrix(1, 0, 0, 1, 37, 4)"><g clip-path="url(#dcae6d1d87)"><g fill="#000000" fill-opacity="1"><g transform="translate(1.214863, 15.41934)"><g><path d="M 11.953125 -10.734375 L 7.359375 0 L 4.375 0 L -0.21875 -10.734375 L 3.0625 -10.734375 L 5.984375 -3.734375 L 8.953125 -10.734375 Z M 11.953125 -10.734375 "/></g></g></g><g fill="#000000" fill-opacity="1"><g transform="translate(12.109222, 15.41934)"><g><path d="M 5.109375 0.140625 C 4.210938 0.140625 3.40625 -0.0390625 2.6875 -0.40625 C 1.976562 -0.78125 1.421875 -1.289062 1.015625 -1.9375 C 0.609375 -2.59375 0.40625 -3.335938 0.40625 -4.171875 C 0.40625 -4.984375 0.609375 -5.71875 1.015625 -6.375 C 1.421875 -7.03125 1.976562 -7.539062 2.6875 -7.90625 C 3.394531 -8.269531 4.203125 -8.453125 5.109375 -8.453125 C 6.003906 -8.453125 6.804688 -8.269531 7.515625 -7.90625 C 8.234375 -7.539062 8.789062 -7.03125 9.1875 -6.375 C 9.59375 -5.726562 9.796875 -4.992188 9.796875 -4.171875 C 9.796875 -3.335938 9.59375 -2.59375 9.1875 -1.9375 C 8.789062 -1.289062 8.234375 -0.78125 7.515625 -0.40625 C 6.804688 -0.0390625 6.003906 0.140625 5.109375 0.140625 Z M 5.109375 -2.171875 C 5.617188 -2.171875 6.035156 -2.347656 6.359375 -2.703125 C 6.691406 -3.054688 6.859375 -3.546875 6.859375 -4.171875 C 6.859375 -4.785156 6.691406 -5.265625 6.359375 -5.609375 C 6.035156 -5.953125 5.617188 -6.125 5.109375 -6.125 C 4.597656 -6.125 4.175781 -5.953125 3.84375 -5.609375 C 3.519531 -5.265625 3.359375 -4.785156 3.359375 -4.171875 C 3.359375 -3.546875 3.519531 -3.054688 3.84375 -2.703125 C 4.175781 -2.347656 4.597656 -2.171875 5.109375 -2.171875 Z M 5.109375 -2.171875 "/></g></g></g><g fill="#000000" fill-opacity="1"><g transform="translate(22.31421, 15.41934)"><g><path d="M 9.671875 -8.3125 L 9.671875 0 L 6.890625 0 L 6.890625 -0.890625 C 6.585938 -0.554688 6.222656 -0.300781 5.796875 -0.125 C 5.367188 0.0507812 4.914062 0.140625 4.4375 0.140625 C 3.363281 0.140625 2.503906 -0.175781 1.859375 -0.8125 C 1.222656 -1.445312 0.90625 -2.394531 0.90625 -3.65625 L 0.90625 -8.3125 L 3.8125 -8.3125 L 3.8125 -4.140625 C 3.8125 -3.515625 3.925781 -3.054688 4.15625 -2.765625 C 4.394531 -2.484375 4.742188 -2.34375 5.203125 -2.34375 C 5.660156 -2.34375 6.035156 -2.503906 6.328125 -2.828125 C 6.617188 -3.148438 6.765625 -3.644531 6.765625 -4.3125 L 6.765625 -8.3125 Z M 9.671875 -8.3125 "/></g></g></g><g fill="#000000" fill-opacity="1"><g transform="translate(32.917592, 15.41934)"><g><path d="M 5.1875 0.140625 C 4.257812 0.140625 3.429688 -0.0390625 2.703125 -0.40625 C 1.984375 -0.78125 1.421875 -1.289062 1.015625 -1.9375 C 0.609375 -2.59375 0.40625 -3.335938 0.40625 -4.171875 C 0.40625 -4.992188 0.609375 -5.726562 1.015625 -6.375 C 1.421875 -7.03125 1.984375 -7.539062 2.703125 -7.90625 C 3.429688 -8.269531 4.257812 -8.453125 5.1875 -8.453125 C 6.125 -8.453125 6.929688 -8.25 7.609375 -7.84375 C 8.296875 -7.4375 8.785156 -6.875 9.078125 -6.15625 L 6.828125 -5.015625 C 6.441406 -5.753906 5.890625 -6.125 5.171875 -6.125 C 4.648438 -6.125 4.21875 -5.953125 3.875 -5.609375 C 3.53125 -5.265625 3.359375 -4.785156 3.359375 -4.171875 C 3.359375 -3.546875 3.53125 -3.054688 3.875 -2.703125 C 4.21875 -2.347656 4.648438 -2.171875 5.171875 -2.171875 C 5.890625 -2.171875 6.441406 -2.546875 6.828125 -3.296875 L 9.078125 -2.140625 C 8.785156 -1.429688 8.296875 -0.875 7.609375 -0.46875 C 6.929688 -0.0625 6.125 0.140625 5.1875 0.140625 Z M 5.1875 0.140625 "/></g></g></g><g fill="#000000" fill-opacity="1"><g transform="translate(42.126593, 15.41934)"><g><path d="M 6.34375 -8.453125 C 7.375 -8.453125 8.203125 -8.144531 8.828125 -7.53125 C 9.460938 -6.914062 9.78125 -5.988281 9.78125 -4.75 L 9.78125 0 L 6.859375 0 L 6.859375 -4.28125 C 6.859375 -5.414062 6.40625 -5.984375 5.5 -5.984375 C 5 -5.984375 4.597656 -5.816406 4.296875 -5.484375 C 3.992188 -5.160156 3.84375 -4.671875 3.84375 -4.015625 L 3.84375 0 L 0.9375 0 L 0.9375 -11.375 L 3.84375 -11.375 L 3.84375 -7.546875 C 4.164062 -7.835938 4.539062 -8.0625 4.96875 -8.21875 C 5.394531 -8.375 5.851562 -8.453125 6.34375 -8.453125 Z M 6.34375 -8.453125 "/></g></g></g><g clip-path="url(#249c236129)"><g fill="#000000" fill-opacity="1"><g transform="translate(52.63801, 15.41934)"><g><path d="M 9.6875 -8.3125 L 6.09375 0.34375 C 5.675781 1.363281 5.164062 2.078125 4.5625 2.484375 C 3.957031 2.898438 3.222656 3.109375 2.359375 3.109375 C 1.921875 3.109375 1.476562 3.039062 1.03125 2.90625 C 0.59375 2.769531 0.234375 2.585938 -0.046875 2.359375 L 0.96875 0.328125 C 1.125 0.472656 1.316406 0.585938 1.546875 0.671875 C 1.785156 0.765625 2.019531 0.8125 2.25 0.8125 C 2.53125 0.8125 2.757812 0.753906 2.9375 0.640625 C 3.113281 0.523438 3.265625 0.347656 3.390625 0.109375 L -0.171875 -8.3125 L 2.828125 -8.3125 L 4.859375 -3.234375 L 6.90625 -8.3125 Z M 9.6875 -8.3125 "/></g></g></g></g></g></g></g><g transform="matrix(1, 0, 0, 1, 41, 21)"><g clip-path="url(#d377738b09)"><g fill="#000000" fill-opacity="1"><g transform="translate(0.86758, 5.954963)"><g><path d="M 1.875 0.0625 C 1.550781 0.0625 1.234375 0.015625 0.921875 -0.078125 C 0.617188 -0.171875 0.378906 -0.289062 0.203125 -0.4375 L 0.484375 -1.046875 C 0.648438 -0.910156 0.859375 -0.800781 1.109375 -0.71875 C 1.359375 -0.632812 1.613281 -0.59375 1.875 -0.59375 C 2.1875 -0.59375 2.414062 -0.640625 2.5625 -0.734375 C 2.71875 -0.835938 2.796875 -0.972656 2.796875 -1.140625 C 2.796875 -1.253906 2.753906 -1.347656 2.671875 -1.421875 C 2.585938 -1.503906 2.476562 -1.566406 2.34375 -1.609375 C 2.207031 -1.660156 2.023438 -1.710938 1.796875 -1.765625 C 1.484375 -1.847656 1.226562 -1.925781 1.03125 -2 C 0.832031 -2.070312 0.660156 -2.1875 0.515625 -2.34375 C 0.367188 -2.507812 0.296875 -2.734375 0.296875 -3.015625 C 0.296875 -3.242188 0.359375 -3.453125 0.484375 -3.640625 C 0.617188 -3.835938 0.8125 -3.988281 1.0625 -4.09375 C 1.3125 -4.207031 1.625 -4.265625 2 -4.265625 C 2.25 -4.265625 2.5 -4.234375 2.75 -4.171875 C 3 -4.109375 3.21875 -4.015625 3.40625 -3.890625 L 3.15625 -3.296875 C 2.96875 -3.398438 2.773438 -3.476562 2.578125 -3.53125 C 2.378906 -3.59375 2.179688 -3.625 1.984375 -3.625 C 1.679688 -3.625 1.453125 -3.570312 1.296875 -3.46875 C 1.148438 -3.363281 1.078125 -3.222656 1.078125 -3.046875 C 1.078125 -2.929688 1.117188 -2.832031 1.203125 -2.75 C 1.285156 -2.675781 1.394531 -2.617188 1.53125 -2.578125 C 1.664062 -2.535156 1.847656 -2.484375 2.078125 -2.421875 C 2.390625 -2.347656 2.644531 -2.269531 2.84375 -2.1875 C 3.039062 -2.113281 3.210938 -1.992188 3.359375 -1.828125 C 3.503906 -1.671875 3.578125 -1.457031 3.578125 -1.1875 C 3.578125 -0.957031 3.507812 -0.75 3.375 -0.5625 C 3.25 -0.375 3.054688 -0.222656 2.796875 -0.109375 C 2.546875 0.00390625 2.238281 0.0625 1.875 0.0625 Z M 1.875 0.0625 "/></g></g></g><g fill="#000000" fill-opacity="1"><g transform="translate(4.653807, 5.954963)"><g><path d="M 1.9375 0.046875 C 1.613281 0.046875 1.320312 -0.0195312 1.0625 -0.15625 C 0.800781 -0.300781 0.597656 -0.5 0.453125 -0.75 C 0.304688 -1 0.234375 -1.285156 0.234375 -1.609375 C 0.234375 -1.921875 0.304688 -2.203125 0.453125 -2.453125 C 0.597656 -2.703125 0.800781 -2.894531 1.0625 -3.03125 C 1.320312 -3.175781 1.613281 -3.25 1.9375 -3.25 C 2.269531 -3.25 2.566406 -3.175781 2.828125 -3.03125 C 3.085938 -2.894531 3.289062 -2.703125 3.4375 -2.453125 C 3.582031 -2.203125 3.65625 -1.921875 3.65625 -1.609375 C 3.65625 -1.285156 3.582031 -1 3.4375 -0.75 C 3.289062 -0.5 3.085938 -0.300781 2.828125 -0.15625 C 2.566406 -0.0195312 2.269531 0.046875 1.9375 0.046875 Z M 1.9375 -0.59375 C 2.21875 -0.59375 2.445312 -0.6875 2.625 -0.875 C 2.800781 -1.0625 2.890625 -1.304688 2.890625 -1.609375 C 2.890625 -1.910156 2.800781 -2.148438 2.625 -2.328125 C 2.445312 -2.515625 2.21875 -2.609375 1.9375 -2.609375 C 1.65625 -2.609375 1.425781 -2.515625 1.25 -2.328125 C 1.070312 -2.148438 0.984375 -1.910156 0.984375 -1.609375 C 0.984375 -1.304688 1.070312 -1.0625 1.25 -0.875 C 1.425781 -0.6875 1.65625 -0.59375 1.9375 -0.59375 Z M 1.9375 -0.59375 "/></g></g></g><g fill="#000000" fill-opacity="1"><g transform="translate(8.536346, 5.954963)"><g><path d="M 1.96875 0.046875 C 1.632812 0.046875 1.332031 -0.0195312 1.0625 -0.15625 C 0.800781 -0.300781 0.597656 -0.5 0.453125 -0.75 C 0.304688 -1 0.234375 -1.285156 0.234375 -1.609375 C 0.234375 -1.921875 0.304688 -2.203125 0.453125 -2.453125 C 0.597656 -2.703125 0.800781 -2.894531 1.0625 -3.03125 C 1.332031 -3.175781 1.632812 -3.25 1.96875 -3.25 C 2.28125 -3.25 2.554688 -3.179688 2.796875 -3.046875 C 3.035156 -2.921875 3.21875 -2.738281 3.34375 -2.5 L 2.765625 -2.171875 C 2.671875 -2.316406 2.550781 -2.425781 2.40625 -2.5 C 2.269531 -2.570312 2.125 -2.609375 1.96875 -2.609375 C 1.6875 -2.609375 1.453125 -2.515625 1.265625 -2.328125 C 1.078125 -2.148438 0.984375 -1.910156 0.984375 -1.609375 C 0.984375 -1.304688 1.070312 -1.0625 1.25 -0.875 C 1.4375 -0.6875 1.675781 -0.59375 1.96875 -0.59375 C 2.125 -0.59375 2.269531 -0.628906 2.40625 -0.703125 C 2.550781 -0.785156 2.671875 -0.898438 2.765625 -1.046875 L 3.34375 -0.703125 C 3.21875 -0.460938 3.035156 -0.273438 2.796875 -0.140625 C 2.554688 -0.015625 2.28125 0.046875 1.96875 0.046875 Z M 1.96875 0.046875 "/></g></g></g><g fill="#000000" fill-opacity="1"><g transform="translate(12.033641, 5.954963)"><g><path d="M 0.5 -3.21875 L 1.25 -3.21875 L 1.25 0 L 0.5 0 Z M 0.875 -3.734375 C 0.726562 -3.734375 0.609375 -3.773438 0.515625 -3.859375 C 0.429688 -3.953125 0.390625 -4.0625 0.390625 -4.1875 C 0.390625 -4.320312 0.429688 -4.429688 0.515625 -4.515625 C 0.609375 -4.597656 0.726562 -4.640625 0.875 -4.640625 C 1.007812 -4.640625 1.117188 -4.597656 1.203125 -4.515625 C 1.296875 -4.429688 1.34375 -4.328125 1.34375 -4.203125 C 1.34375 -4.078125 1.296875 -3.96875 1.203125 -3.875 C 1.117188 -3.78125 1.007812 -3.734375 0.875 -3.734375 Z M 0.875 -3.734375 "/></g></g></g><g fill="#000000" fill-opacity="1"><g transform="translate(13.773261, 5.954963)"><g><path d="M 1.71875 -3.25 C 2.195312 -3.25 2.5625 -3.132812 2.8125 -2.90625 C 3.0625 -2.675781 3.1875 -2.335938 3.1875 -1.890625 L 3.1875 0 L 2.46875 0 L 2.46875 -0.390625 C 2.375 -0.253906 2.242188 -0.144531 2.078125 -0.0625 C 1.910156 0.0078125 1.707031 0.046875 1.46875 0.046875 C 1.21875 0.046875 1.003906 0.00390625 0.828125 -0.078125 C 0.648438 -0.160156 0.507812 -0.273438 0.40625 -0.421875 C 0.3125 -0.566406 0.265625 -0.734375 0.265625 -0.921875 C 0.265625 -1.210938 0.367188 -1.441406 0.578125 -1.609375 C 0.796875 -1.785156 1.132812 -1.875 1.59375 -1.875 L 2.4375 -1.875 L 2.4375 -1.921875 C 2.4375 -2.148438 2.367188 -2.320312 2.234375 -2.4375 C 2.097656 -2.5625 1.894531 -2.625 1.625 -2.625 C 1.445312 -2.625 1.269531 -2.59375 1.09375 -2.53125 C 0.925781 -2.476562 0.78125 -2.398438 0.65625 -2.296875 L 0.359375 -2.84375 C 0.523438 -2.976562 0.726562 -3.078125 0.96875 -3.140625 C 1.207031 -3.210938 1.457031 -3.25 1.71875 -3.25 Z M 1.625 -0.5 C 1.8125 -0.5 1.976562 -0.539062 2.125 -0.625 C 2.269531 -0.71875 2.375 -0.84375 2.4375 -1 L 2.4375 -1.375 L 1.65625 -1.375 C 1.21875 -1.375 1 -1.234375 1 -0.953125 C 1 -0.816406 1.050781 -0.707031 1.15625 -0.625 C 1.269531 -0.539062 1.425781 -0.5 1.625 -0.5 Z M 1.625 -0.5 "/></g></g></g><g fill="#000000" fill-opacity="1"><g transform="translate(17.427061, 5.954963)"><g><path d="M 0.5 -4.46875 L 1.25 -4.46875 L 1.25 0 L 0.5 0 Z M 0.5 -4.46875 "/></g></g></g><g fill="#000000" fill-opacity="1"><g transform="translate(19.166681, 5.954963)"><g/></g></g><g fill="#000000" fill-opacity="1"><g transform="translate(20.828047, 5.954963)"><g><path d="M 2.296875 -4.203125 C 2.660156 -4.203125 2.976562 -4.140625 3.25 -4.015625 C 3.519531 -3.898438 3.726562 -3.726562 3.875 -3.5 C 4.019531 -3.28125 4.09375 -3.019531 4.09375 -2.71875 C 4.09375 -2.40625 4.019531 -2.132812 3.875 -1.90625 C 3.726562 -1.6875 3.519531 -1.515625 3.25 -1.390625 C 2.976562 -1.273438 2.660156 -1.21875 2.296875 -1.21875 L 1.34375 -1.21875 L 1.34375 0 L 0.5625 0 L 0.5625 -4.203125 Z M 2.265625 -1.875 C 2.597656 -1.875 2.851562 -1.945312 3.03125 -2.09375 C 3.207031 -2.238281 3.296875 -2.445312 3.296875 -2.71875 C 3.296875 -2.976562 3.207031 -3.179688 3.03125 -3.328125 C 2.851562 -3.472656 2.597656 -3.546875 2.265625 -3.546875 L 1.34375 -3.546875 L 1.34375 -1.875 Z M 2.265625 -1.875 "/></g></g></g><g fill="#000000" fill-opacity="1"><g transform="translate(25.107862, 5.954963)"><g><path d="M 1.203125 -2.75 C 1.421875 -3.082031 1.804688 -3.25 2.359375 -3.25 L 2.359375 -2.53125 C 2.285156 -2.539062 2.222656 -2.546875 2.171875 -2.546875 C 1.878906 -2.546875 1.648438 -2.460938 1.484375 -2.296875 C 1.328125 -2.128906 1.25 -1.882812 1.25 -1.5625 L 1.25 0 L 0.5 0 L 0.5 -3.21875 L 1.203125 -3.21875 Z M 1.203125 -2.75 "/></g></g></g><g fill="#000000" fill-opacity="1"><g transform="translate(27.575829, 5.954963)"><g><path d="M 1.9375 0.046875 C 1.613281 0.046875 1.320312 -0.0195312 1.0625 -0.15625 C 0.800781 -0.300781 0.597656 -0.5 0.453125 -0.75 C 0.304688 -1 0.234375 -1.285156 0.234375 -1.609375 C 0.234375 -1.921875 0.304688 -2.203125 0.453125 -2.453125 C 0.597656 -2.703125 0.800781 -2.894531 1.0625 -3.03125 C 1.320312 -3.175781 1.613281 -3.25 1.9375 -3.25 C 2.269531 -3.25 2.566406 -3.175781 2.828125 -3.03125 C 3.085938 -2.894531 3.289062 -2.703125 3.4375 -2.453125 C 3.582031 -2.203125 3.65625 -1.921875 3.65625 -1.609375 C 3.65625 -1.285156 3.582031 -1 3.4375 -0.75 C 3.289062 -0.5 3.085938 -0.300781 2.828125 -0.15625 C 2.566406 -0.0195312 2.269531 0.046875 1.9375 0.046875 Z M 1.9375 -0.59375 C 2.21875 -0.59375 2.445312 -0.6875 2.625 -0.875 C 2.800781 -1.0625 2.890625 -1.304688 2.890625 -1.609375 C 2.890625 -1.910156 2.800781 -2.148438 2.625 -2.328125 C 2.445312 -2.515625 2.21875 -2.609375 1.9375 -2.609375 C 1.65625 -2.609375 1.425781 -2.515625 1.25 -2.328125 C 1.070312 -2.148438 0.984375 -1.910156 0.984375 -1.609375 C 0.984375 -1.304688 1.070312 -1.0625 1.25 -0.875 C 1.425781 -0.6875 1.65625 -0.59375 1.9375 -0.59375 Z M 1.9375 -0.59375 "/></g></g></g><g fill="#000000" fill-opacity="1"><g transform="translate(31.458368, 5.954963)"><g><path d="M 1.9375 0.046875 C 1.613281 0.046875 1.320312 -0.0195312 1.0625 -0.15625 C 0.800781 -0.300781 0.597656 -0.5 0.453125 -0.75 C 0.304688 -1 0.234375 -1.285156 0.234375 -1.609375 C 0.234375 -1.921875 0.304688 -2.203125 0.453125 -2.453125 C 0.597656 -2.703125 0.800781 -2.894531 1.0625 -3.03125 C 1.320312 -3.175781 1.613281 -3.25 1.9375 -3.25 C 2.269531 -3.25 2.566406 -3.175781 2.828125 -3.03125 C 3.085938 -2.894531 3.289062 -2.703125 3.4375 -2.453125 C 3.582031 -2.203125 3.65625 -1.921875 3.65625 -1.609375 C 3.65625 -1.285156 3.582031 -1 3.4375 -0.75 C 3.289062 -0.5 3.085938 -0.300781 2.828125 -0.15625 C 2.566406 -0.0195312 2.269531 0.046875 1.9375 0.046875 Z M 1.9375 -0.59375 C 2.21875 -0.59375 2.445312 -0.6875 2.625 -0.875 C 2.800781 -1.0625 2.890625 -1.304688 2.890625 -1.609375 C 2.890625 -1.910156 2.800781 -2.148438 2.625 -2.328125 C 2.445312 -2.515625 2.21875 -2.609375 1.9375 -2.609375 C 1.65625 -2.609375 1.425781 -2.515625 1.25 -2.328125 C 1.070312 -2.148438 0.984375 -1.910156 0.984375 -1.609375 C 0.984375 -1.304688 1.070312 -1.0625 1.25 -0.875 C 1.425781 -0.6875 1.65625 -0.59375 1.9375 -0.59375 Z M 1.9375 -0.59375 "/></g></g></g><g fill="#000000" fill-opacity="1"><g transform="translate(35.340907, 5.954963)"><g><path d="M 1.796875 -3.890625 C 1.484375 -3.890625 1.328125 -3.71875 1.328125 -3.375 L 1.328125 -3.1875 L 2.203125 -3.1875 L 2.203125 -2.59375 L 1.34375 -2.59375 L 1.34375 0 L 0.59375 0 L 0.59375 -2.59375 L 0.0625 -2.59375 L 0.0625 -3.1875 L 0.59375 -3.1875 L 0.59375 -3.390625 C 0.59375 -3.734375 0.691406 -4.003906 0.890625 -4.203125 C 1.097656 -4.398438 1.382812 -4.5 1.75 -4.5 C 2.03125 -4.5 2.253906 -4.441406 2.421875 -4.328125 L 2.21875 -3.765625 C 2.082031 -3.847656 1.941406 -3.890625 1.796875 -3.890625 Z M 1.796875 -3.890625 "/></g></g></g><g fill="#000000" fill-opacity="1"><g transform="translate(37.501881, 5.954963)"><g><path d="M 0.734375 -0.953125 C 0.878906 -0.953125 1 -0.90625 1.09375 -0.8125 C 1.1875 -0.726562 1.234375 -0.609375 1.234375 -0.453125 C 1.234375 -0.390625 1.222656 -0.320312 1.203125 -0.25 C 1.179688 -0.1875 1.144531 -0.0820312 1.09375 0.0625 L 0.78125 0.90625 L 0.296875 0.90625 L 0.53125 -0.015625 C 0.445312 -0.046875 0.378906 -0.0976562 0.328125 -0.171875 C 0.273438 -0.253906 0.25 -0.347656 0.25 -0.453125 C 0.25 -0.609375 0.296875 -0.726562 0.390625 -0.8125 C 0.484375 -0.90625 0.597656 -0.953125 0.734375 -0.953125 Z M 0.734375 -0.953125 "/></g></g></g><g fill="#000000" fill-opacity="1"><g transform="translate(38.970623, 5.954963)"><g/></g></g><g fill="#000000" fill-opacity="1"><g transform="translate(40.631989, 5.954963)"><g><path d="M 1.34375 -3.5625 L 1.34375 -2.28125 L 3.375 -2.28125 L 3.375 -1.609375 L 1.34375 -1.609375 L 1.34375 0 L 0.5625 0 L 0.5625 -4.203125 L 3.640625 -4.203125 L 3.640625 -3.5625 Z M 1.34375 -3.5625 "/></g></g></g><g fill="#000000" fill-opacity="1"><g transform="translate(44.364036, 5.954963)"><g><path d="M 1.71875 -3.25 C 2.195312 -3.25 2.5625 -3.132812 2.8125 -2.90625 C 3.0625 -2.675781 3.1875 -2.335938 3.1875 -1.890625 L 3.1875 0 L 2.46875 0 L 2.46875 -0.390625 C 2.375 -0.253906 2.242188 -0.144531 2.078125 -0.0625 C 1.910156 0.0078125 1.707031 0.046875 1.46875 0.046875 C 1.21875 0.046875 1.003906 0.00390625 0.828125 -0.078125 C 0.648438 -0.160156 0.507812 -0.273438 0.40625 -0.421875 C 0.3125 -0.566406 0.265625 -0.734375 0.265625 -0.921875 C 0.265625 -1.210938 0.367188 -1.441406 0.578125 -1.609375 C 0.796875 -1.785156 1.132812 -1.875 1.59375 -1.875 L 2.4375 -1.875 L 2.4375 -1.921875 C 2.4375 -2.148438 2.367188 -2.320312 2.234375 -2.4375 C 2.097656 -2.5625 1.894531 -2.625 1.625 -2.625 C 1.445312 -2.625 1.269531 -2.59375 1.09375 -2.53125 C 0.925781 -2.476562 0.78125 -2.398438 0.65625 -2.296875 L 0.359375 -2.84375 C 0.523438 -2.976562 0.726562 -3.078125 0.96875 -3.140625 C 1.207031 -3.210938 1.457031 -3.25 1.71875 -3.25 Z M 1.625 -0.5 C 1.8125 -0.5 1.976562 -0.539062 2.125 -0.625 C 2.269531 -0.71875 2.375 -0.84375 2.4375 -1 L 2.4375 -1.375 L 1.65625 -1.375 C 1.21875 -1.375 1 -1.234375 1 -0.953125 C 1 -0.816406 1.050781 -0.707031 1.15625 -0.625 C 1.269531 -0.539062 1.425781 -0.5 1.625 -0.5 Z M 1.625 -0.5 "/></g></g></g><g fill="#000000" fill-opacity="1"><g transform="translate(48.017836, 5.954963)"><g><path d="M 1.484375 0.046875 C 1.222656 0.046875 0.96875 0.015625 0.71875 -0.046875 C 0.46875 -0.117188 0.269531 -0.207031 0.125 -0.3125 L 0.421875 -0.890625 C 0.554688 -0.796875 0.722656 -0.71875 0.921875 -0.65625 C 1.128906 -0.601562 1.332031 -0.578125 1.53125 -0.578125 C 1.976562 -0.578125 2.203125 -0.691406 2.203125 -0.921875 C 2.203125 -1.035156 2.144531 -1.113281 2.03125 -1.15625 C 1.914062 -1.207031 1.734375 -1.25 1.484375 -1.28125 C 1.222656 -1.320312 1.007812 -1.367188 0.84375 -1.421875 C 0.675781 -1.472656 0.53125 -1.5625 0.40625 -1.6875 C 0.28125 -1.820312 0.21875 -2.007812 0.21875 -2.25 C 0.21875 -2.550781 0.34375 -2.789062 0.59375 -2.96875 C 0.851562 -3.15625 1.203125 -3.25 1.640625 -3.25 C 1.859375 -3.25 2.078125 -3.222656 2.296875 -3.171875 C 2.515625 -3.117188 2.695312 -3.050781 2.84375 -2.96875 L 2.546875 -2.40625 C 2.273438 -2.5625 1.96875 -2.640625 1.625 -2.640625 C 1.40625 -2.640625 1.238281 -2.601562 1.125 -2.53125 C 1.007812 -2.46875 0.953125 -2.382812 0.953125 -2.28125 C 0.953125 -2.15625 1.015625 -2.066406 1.140625 -2.015625 C 1.265625 -1.972656 1.453125 -1.929688 1.703125 -1.890625 C 1.960938 -1.847656 2.175781 -1.800781 2.34375 -1.75 C 2.507812 -1.695312 2.648438 -1.609375 2.765625 -1.484375 C 2.878906 -1.359375 2.9375 -1.179688 2.9375 -0.953125 C 2.9375 -0.648438 2.804688 -0.40625 2.546875 -0.21875 C 2.285156 -0.0390625 1.929688 0.046875 1.484375 0.046875 Z M 1.484375 0.046875 "/></g></g></g><g clip-path="url(#0fc8c0058b)"><g fill="#000000" fill-opacity="1"><g transform="translate(51.117848, 5.954963)"><g><path d="M 2.421875 -0.171875 C 2.335938 -0.0976562 2.226562 -0.0390625 2.09375 0 C 1.96875 0.03125 1.835938 0.046875 1.703125 0.046875 C 1.347656 0.046875 1.070312 -0.046875 0.875 -0.234375 C 0.6875 -0.421875 0.59375 -0.691406 0.59375 -1.046875 L 0.59375 -2.59375 L 0.0625 -2.59375 L 0.0625 -3.1875 L 0.59375 -3.1875 L 0.59375 -3.921875 L 1.34375 -3.921875 L 1.34375 -3.1875 L 2.203125 -3.1875 L 2.203125 -2.59375 L 1.34375 -2.59375 L 1.34375 -1.0625 C 1.34375 -0.90625 1.378906 -0.785156 1.453125 -0.703125 C 1.535156 -0.617188 1.648438 -0.578125 1.796875 -0.578125 C 1.960938 -0.578125 2.101562 -0.617188 2.21875 -0.703125 Z M 2.421875 -0.171875 "/></g></g></g></g></g></g></g></g></svg>