<svg xmlns="http://www.w3.org/2000/svg" xmlns:xlink="http://www.w3.org/1999/xlink" width="64" zoomAndPan="magnify" viewBox="0 0 48 48" height="64" preserveAspectRatio="xMidYMid meet" version="1.0"><defs><clipPath id="e5906d9de3"><path d="M 2 2 L 46.4375 2 L 46.4375 46 L 2 46 Z M 2 2 " clip-rule="nonzero"/></clipPath></defs><g clip-path="url(#e5906d9de3)"><path fill="#14873e" d="M 27.382812 45.058594 C 18.269531 46.953125 9.207031 42.875 4.722656 34.808594 C -0.273438 25.816406 1.835938 14.125 10.324219 7.644531 C 13.773438 5.011719 17.65625 3.601562 22.023438 3.433594 C 26.6875 3.25 30.917969 4.4375 34.722656 7.125 C 35.839844 7.914062 35.835938 7.976562 34.917969 8.914062 C 33.867188 9.984375 32.863281 11.113281 31.714844 12.070312 C 30.59375 13.007812 30.574219 14.109375 30.820312 15.46875 C 31.523438 15.128906 31.933594 14.558594 32.410156 14.085938 C 34.660156 11.851562 36.859375 9.5625 39.132812 7.347656 C 39.835938 6.667969 39.746094 6.242188 39.039062 5.707031 C 38.570312 5.347656 38.148438 4.925781 37.734375 4.503906 C 37.265625 4.027344 37.285156 3.601562 38.011719 3.484375 C 40.378906 3.101562 42.753906 2.753906 45.128906 2.394531 C 45.695312 2.3125 46.160156 2.417969 46.023438 3.132812 C 45.53125 5.695312 45.007812 8.25 44.496094 10.808594 C 44.484375 10.863281 44.40625 10.910156 44.261719 11.0625 C 43.085938 10.613281 42.710938 9.292969 42.054688 8.769531 C 39.019531 11.632812 36.027344 14.457031 32.929688 17.378906 C 34.457031 17.648438 35.585938 17.523438 36.574219 16.371094 C 37.675781 15.089844 38.839844 13.828125 40.347656 12.667969 C 43.710938 17.777344 44.804688 23.253906 43.425781 29.066406 C 41.402344 37.59375 35.871094 42.796875 27.382812 45.058594 M 29.765625 25.722656 C 31.136719 24.59375 32.511719 23.464844 33.875 22.328125 C 34.109375 22.132812 34.421875 21.929688 34.328125 21.566406 C 34.21875 21.128906 33.8125 21.160156 33.472656 21.136719 C 31.492188 21.007812 29.511719 20.84375 27.527344 20.769531 C 26.632812 20.738281 26.136719 20.378906 25.839844 19.535156 C 25.21875 17.761719 24.539062 16.007812 23.851562 14.253906 C 23.695312 13.851562 23.59375 13.28125 23.046875 13.265625 C 22.480469 13.25 22.394531 13.835938 22.242188 14.234375 C 21.53125 16.089844 20.835938 17.949219 20.167969 19.816406 C 19.941406 20.453125 19.609375 20.757812 18.886719 20.78125 C 16.871094 20.855469 14.855469 21.007812 12.84375 21.140625 C 12.441406 21.167969 11.9375 21.058594 11.753906 21.558594 C 11.5625 22.070312 12.03125 22.285156 12.339844 22.546875 C 13.800781 23.78125 15.25 25.039062 16.738281 26.246094 C 17.484375 26.847656 17.703125 27.484375 17.410156 28.429688 C 16.847656 30.222656 16.382812 32.046875 15.921875 33.867188 C 15.832031 34.222656 15.480469 34.703125 15.996094 35 C 16.421875 35.246094 16.789062 34.917969 17.136719 34.691406 C 18.824219 33.582031 20.523438 32.488281 22.191406 31.347656 C 22.789062 30.9375 23.277344 30.886719 23.894531 31.3125 C 25.554688 32.464844 27.246094 33.566406 28.929688 34.6875 C 29.242188 34.894531 29.5625 35.226562 29.964844 34.972656 C 30.390625 34.699219 30.15625 34.296875 30.054688 33.933594 C 29.609375 32.324219 29.292969 30.664062 28.683594 29.117188 C 28.109375 27.65625 28.265625 26.609375 29.765625 25.722656 Z M 29.765625 25.722656 " fill-opacity="1" fill-rule="nonzero"/></g></svg>